<?xml version="1.0" encoding="UTF-8"?><svg id="Lager_1" xmlns="http://www.w3.org/2000/svg" viewBox="0 0 408.83 180.26"><defs><style>.cls-1{fill:#8ad0f1;}.cls-1,.cls-2,.cls-3{stroke:#1d1d1b;stroke-miterlimit:10;stroke-width:.25px;}.cls-4{fill:#303031;}.cls-2{fill:#f9f6ed;}.cls-3{fill:#f39774;}</style></defs><g><circle class="cls-1" cx="123.83" cy="80.68" r="80.56"/><circle class="cls-3" cx="284.94" cy="80.68" r="80.56"/><circle class="cls-2" cx="204.39" cy="80.68" r="80.56"/></g><g><path class="cls-4" d="M83.35,87.1h7.19c4.11,0,6.17,1.41,6.17,4.22,0,2.01-.72,3.58-2.15,4.71s-3.46,1.69-6.06,1.69h-8.44c-3.08,0-5.45-.64-7.13-1.93s-2.51-3.13-2.51-5.53c0-1.54,.62-3.79,1.86-6.75l11.41-26.73-8.57,9.19c-2.04,2.22-3.98,3.33-5.82,3.33-2.4,0-3.95-1.64-4.66-4.93l-1.24-5.51-10.83,26.73c-3.73,9.18-6.57,15.42-8.53,18.72s-4.48,6.16-7.59,8.59c-4.5,3.49-9.67,5.24-15.5,5.24-6.22,0-11.26-1.96-15.14-5.88S0,103.22,0,96.91c0-8.26,3.05-15.53,9.15-21.8,3.29-3.35,7.39-6.05,12.3-8.1s9.75-3.09,14.52-3.09c2.43,0,4.37,.52,5.82,1.55s2.18,2.41,2.18,4.13c0,1.81-.77,3.27-2.31,4.4-.89,.65-2.61,1.1-5.15,1.33-5.89,.53-10.64,1.88-14.25,4.04-2.99,1.81-5.37,4.16-7.13,7.06s-2.64,5.94-2.64,9.1c0,3.37,.86,6.03,2.58,7.97s4.07,2.91,7.06,2.91c3.58,0,6.7-1.53,9.35-4.6,2.65-3.06,5.56-8.47,8.73-16.23l17.63-43.38c1.54-3.82,3.61-5.73,6.22-5.73,1.66,0,2.97,.53,3.93,1.6s1.8,2.93,2.51,5.59l2.71,10.21,13.32-13.1c2.93-2.87,5.67-4.31,8.21-4.31,1.78,0,3.28,.54,4.51,1.62s1.84,2.39,1.84,3.93c0,.98-.24,2.04-.71,3.2l-1.02,2.49-15.99,39.39Z"/><path class="cls-4" d="M112.25,84.7c0,2.22,1.67,3.33,5.02,3.33h13.19c3.73,0,5.59,1.32,5.59,3.95,0,1.81-.66,3.21-1.98,4.22s-3.16,1.51-5.53,1.51h-12.57c-4.68,0-8.24-1.15-10.68-3.46s-3.66-5.68-3.66-10.12c0-5.71,1.93-10.64,5.79-14.79s8.46-6.22,13.79-6.22c3.88,0,6.99,1.01,9.35,3.04s3.53,4.7,3.53,8.02c0,4-1.63,6.96-4.88,8.88-1.81,1.1-4.5,1.64-8.08,1.64h-8.88Zm2.13-8.08h4.88c3.17,0,4.71-.7,4.62-2.09-.09-1.57-1.11-2.35-3.06-2.35-2.72,0-4.87,1.48-6.44,4.44Z"/><path class="cls-4" d="M150.09,88.03h5.02c3.73,0,5.59,1.32,5.59,3.95,0,1.81-.66,3.21-1.98,4.22s-3.16,1.51-5.53,1.51h-7.06c-2.61,0-4.66-.53-6.15-1.6-1.49-1.07-2.24-2.52-2.24-4.35,0-.98,.31-2.22,.93-3.73l7.33-18.03,.49-1.24c1.36-3.35,3.55-5.02,6.57-5.02,1.24,0,2.32,.41,3.22,1.24s1.35,1.82,1.35,2.98c0,.95-.4,2.4-1.2,4.35l-6.35,15.72Zm5.86-38.45c1.72,0,3.17,.6,4.37,1.8s1.8,2.66,1.8,4.37-.6,3.17-1.8,4.37-2.66,1.8-4.37,1.8-3.17-.6-4.37-1.8-1.8-2.66-1.8-4.37,.6-3.17,1.8-4.37,2.66-1.8,4.37-1.8Z"/><path class="cls-4" d="M195.29,88.03h5.33c3.76,0,5.64,1.32,5.64,3.95,0,1.81-.67,3.21-2,4.22s-3.17,1.51-5.51,1.51h-9.28c-1.81,0-3.32-.55-4.55-1.64s-1.84-2.47-1.84-4.13c0-1.01,.41-2.52,1.24-4.53l3.91-9.68c.41-1.01,.64-1.82,.67-2.44,.03-.71-.26-1.32-.87-1.82s-1.38-.75-2.33-.75c-3.05,0-5.51,2.29-7.37,6.88l-5.24,12.88c-1.57,3.91-3.91,5.86-7.02,5.86-1.27,0-2.35-.38-3.24-1.15s-1.33-1.72-1.33-2.84c0-.83,.24-1.82,.71-2.98l.49-1.2,8.97-22.11c1.15-2.87,3.12-4.31,5.91-4.31,2.28,0,3.91,1.01,4.88,3.02,3.17-2.43,6.19-3.64,9.06-3.64s5.08,.8,6.88,2.4,2.71,3.63,2.71,6.08c0,1.36-.33,2.86-.98,4.48l-4.84,11.94Z"/><path class="cls-4" d="M218.56,84.7c0,2.22,1.67,3.33,5.02,3.33h13.19c3.73,0,5.59,1.32,5.59,3.95,0,1.81-.66,3.21-1.98,4.22s-3.16,1.51-5.53,1.51h-12.57c-4.68,0-8.24-1.15-10.68-3.46s-3.66-5.68-3.66-10.12c0-5.71,1.93-10.64,5.79-14.79s8.46-6.22,13.79-6.22c3.88,0,6.99,1.01,9.35,3.04s3.53,4.7,3.53,8.02c0,4-1.63,6.96-4.88,8.88-1.81,1.1-4.5,1.64-8.08,1.64h-8.88Zm2.13-8.08h4.88c3.17,0,4.71-.7,4.62-2.09-.09-1.57-1.11-2.35-3.06-2.35-2.72,0-4.87,1.48-6.44,4.44Z"/><path class="cls-4" d="M255.15,73.47l-1.51,3.73c-1.36,3.32-3.14,4.97-5.33,4.97-1.33,0-2.44-.4-3.33-1.2s-1.33-1.79-1.33-2.98c0-.68,.33-1.84,.98-3.46l5.02-12.39c1.21-2.99,2.93-4.48,5.15-4.48s3.54,1.04,4.04,3.11l.36,1.38c.18,.71,.44,1.15,.8,1.33s1.23,.27,2.62,.27h10.39c3.88,0,5.82,1.36,5.82,4.09,0,3.76-2.46,5.64-7.37,5.64l-.49,.44c-4.71,4.5-7.06,7.98-7.06,10.44s1.36,3.69,4.09,3.69h5.59c3.76,0,5.64,1.3,5.64,3.91,0,1.84-.66,3.26-1.98,4.26s-3.16,1.51-5.53,1.51h-8.7c-2.96,0-5.38-1.02-7.26-3.06-1.88-2.04-2.82-4.69-2.82-7.95,0-2.07,.5-4.09,1.51-6.04s2.78-4.35,5.33-7.19h-4.62Z"/><path class="cls-4" d="M326.46,67.38c-4,7.1-5.99,13.69-5.99,19.76,0,4.32,.98,7.42,2.95,9.28s5.25,2.8,9.84,2.8h24.69c4.09,0,6.13,1.39,6.13,4.17,0,2.01-.72,3.59-2.15,4.73s-3.46,1.71-6.06,1.71h-25.75c-4.29,0-7.73-.59-10.3-1.78-3.58-1.66-6.39-4.21-8.44-7.66s-3.06-7.38-3.06-11.79c0-5.92,1.81-13,5.42-21.23h-3.64c-3.32,0-4.97-1.42-4.97-4.26,0-1.78,.68-3.28,2.04-4.51s3.02-1.84,4.97-1.84h7.64c2.66-4.44,6.25-8.72,10.75-12.83,5.74-5.18,11.94-7.77,18.61-7.77,4.38,0,8.01,1.35,10.88,4.04s4.31,6.13,4.31,10.3c0,5.95-2.77,10.51-8.3,13.68-3.76,2.13-9.74,3.2-17.94,3.2h-11.59Zm6.62-10.61h8.61c7.37,0,11.06-1.97,11.06-5.91,0-1.24-.48-2.26-1.44-3.04s-2.18-1.18-3.66-1.18c-2.28,0-4.74,.92-7.37,2.75s-5.03,4.29-7.19,7.37Z"/><path class="cls-4" d="M376.86,63.12c4.29,0,7.82,1.36,10.59,4.09s4.15,6.19,4.15,10.39c0,3.17-.73,6.31-2.18,9.44s-3.33,5.62-5.64,7.48c-1.54,1.21-3.13,2.05-4.77,2.51s-3.94,.69-6.9,.69c-4.83,0-8.08-.58-9.77-1.73-3.97-2.72-5.95-6.75-5.95-12.08,0-5.62,2.03-10.49,6.08-14.61s8.85-6.17,14.39-6.17Zm-1.07,9.46c-2.19,0-4.19,1.08-5.99,3.24s-2.71,4.54-2.71,7.15c0,3.43,1.92,5.15,5.77,5.15,2.25,0,3.98-.7,5.2-2.09,2.01-2.28,3.02-4.88,3.02-7.82,0-1.69-.49-3.05-1.47-4.09s-2.25-1.55-3.82-1.55Z"/><path class="cls-4" d="M402.66,86.52c1.69,0,3.14,.61,4.35,1.82s1.82,2.66,1.82,4.35-.61,3.18-1.82,4.4-2.66,1.82-4.35,1.82-3.18-.61-4.4-1.82-1.82-2.68-1.82-4.4,.61-3.14,1.82-4.35,2.68-1.82,4.4-1.82Z"/><path class="cls-4" d="M97.67,109.18h5.16c3.23,0,4.48,1.76,4.48,3.73s-1.23,3.34-3.09,3.84c1.22,.41,2.35,1.58,2.35,3.32,0,3.39-2.64,4.93-6.12,4.93h-6.13l3.35-15.81Zm-1.06,14.19h3.89c2.18,0,3.98-1,4-3.23,.01-1.61-1.03-2.71-3.41-2.71h-3.22l-1.26,5.95Zm4.96-7.57c2.16,0,3.68-.76,3.68-2.75,0-1.67-1.24-2.24-2.81-2.24h-3.16l-1.05,4.99h3.34Z"/><path class="cls-4" d="M110.71,119.51c-.06,.46-.1,.71-.1,1.1,0,1.94,.92,3.04,2.54,3.04s2.45-.94,2.98-1.9h1.96c-.75,1.79-2.16,3.47-5.15,3.47s-4.23-1.91-4.23-4.58c0-3.24,1.77-7.4,6.03-7.4,3.09,0,4.12,2.02,4.12,4.11,0,.72-.08,1.39-.29,2.16h-7.86Zm6.25-1.43c.06-.29,.07-.58,.07-.84,0-1.57-.74-2.48-2.4-2.48-1.75,0-3.02,1.21-3.61,3.31h5.93Z"/><path class="cls-4" d="M126.79,113.47h1.91l.71-3.33h1.87l-.7,3.33h2.45l-.35,1.55h-2.45l-1.46,6.97c-.22,1.05-.17,1.56,.83,1.56,.33,0,.78-.02,1.14-.1l-.34,1.48c-.54,.18-1.1,.2-1.6,.2-1.81,0-2.39-.88-1.99-2.79l1.54-7.33h-1.91l.35-1.55Z"/><path class="cls-4" d="M138.07,108.31l-1.49,7.01c.78-1.15,1.96-2.08,3.84-2.08,1.7,0,3.63,.86,2.9,4.34l-1.56,7.41h-1.87l1.49-7.1c.41-1.96-.03-2.98-1.73-2.98-1.92,0-3.29,1.56-3.75,3.73l-1.36,6.36h-1.88l3.53-16.68h1.88Z"/><path class="cls-4" d="M147.52,119.51c-.06,.46-.1,.71-.1,1.1,0,1.94,.92,3.04,2.54,3.04s2.45-.94,2.98-1.9h1.96c-.75,1.79-2.16,3.47-5.15,3.47s-4.23-1.91-4.23-4.58c0-3.24,1.77-7.4,6.03-7.4,3.09,0,4.12,2.02,4.12,4.11,0,.72-.08,1.39-.29,2.16h-7.86Zm6.25-1.43c.06-.29,.07-.58,.07-.84,0-1.57-.74-2.48-2.4-2.48-1.75,0-3.02,1.21-3.61,3.31h5.93Z"/><path class="cls-4" d="M177.34,118.26c.62-2.94,1.29-5.98,1.71-7.64h-.08c-1.12,2.43-5.1,9.51-7.8,14.38h-1.81c-.47-3.93-1.58-12.55-1.65-14.41h-.07c-.25,1.71-.99,5.36-1.56,8.07l-1.32,6.34h-1.9l3.35-15.81h3c.63,4.7,1.48,11.21,1.59,13.26h.04c.69-1.54,4.68-8.47,7.36-13.26h3.02l-3.35,15.81h-1.96l1.42-6.74Z"/><path class="cls-4" d="M183.87,119.51c-.06,.46-.1,.71-.1,1.1,0,1.94,.92,3.04,2.54,3.04s2.45-.94,2.98-1.9h1.96c-.75,1.79-2.16,3.47-5.15,3.47s-4.23-1.91-4.23-4.58c0-3.24,1.77-7.4,6.03-7.4,3.09,0,4.12,2.02,4.12,4.11,0,.72-.08,1.39-.29,2.16h-7.86Zm6.25-1.43c.06-.29,.07-.58,.07-.84,0-1.57-.74-2.48-2.4-2.48-1.75,0-3.02,1.21-3.61,3.31h5.93Z"/><path class="cls-4" d="M195.75,113.47h1.88l-2.44,11.52h-1.88l2.44-11.52Zm1.09-5.16h1.88l-.52,2.49h-1.88l.52-2.49Z"/><path class="cls-4" d="M200.41,116.4c.2-1,.4-1.97,.58-2.93h1.84c-.04,.36-.27,1.66-.35,1.96,.65-1.05,1.77-2.19,3.87-2.19s3.57,1.27,2.86,4.54l-1.51,7.21h-1.87l1.5-7.15c.38-1.74-.01-2.94-1.77-2.94-2.14,0-3.37,1.97-3.86,4.32l-1.22,5.76h-1.88l1.82-8.6Z"/><path class="cls-4" d="M226.51,121.55c-.79,2.2-2.39,3.67-5.12,3.67s-4.18-1.84-4.18-4.51c0-3.47,1.93-7.47,5.95-7.47,3.25,0,4.16,2.35,4.03,3.91h-1.85c-.05-1.3-.62-2.36-2.3-2.36-2.67,0-3.88,3.3-3.88,5.79,0,2.18,.99,3.1,2.5,3.1,1.31,0,2.32-.8,2.96-2.14h1.89Z"/><path class="cls-4" d="M233.67,108.31l-1.49,7.01c.78-1.15,1.96-2.08,3.84-2.08,1.7,0,3.63,.86,2.9,4.34l-1.56,7.41h-1.87l1.49-7.1c.41-1.96-.03-2.98-1.73-2.98-1.92,0-3.29,1.56-3.75,3.73l-1.36,6.36h-1.88l3.53-16.68h1.88Z"/><path class="cls-4" d="M249.74,122.14c-.2,.96-.48,2.39-.54,2.86h-1.85c.04-.42,.16-1.13,.3-1.77-.58,.93-1.55,2-3.9,2s-3.17-1.53-3.17-2.9c0-3.29,3.08-4,5.39-4.23,1.2-.11,2.21-.11,2.8-.13l.15-.78c.22-1.09,.14-2.48-2.07-2.48-1.94,0-2.48,1.01-2.82,1.89h-1.92c.4-1.71,1.67-3.35,4.9-3.35,2.64,0,4.35,1.2,3.77,3.96l-1.05,4.93Zm-1.26-2.77c-.62,.01-1.39,.02-2.37,.12-1.87,.2-3.54,.7-3.54,2.55,0,.87,.59,1.61,1.85,1.61,2.51,0,3.5-1.96,4-4.11l.05-.18Z"/><path class="cls-4" d="M254.31,116.88c.23-1.13,.48-2.35,.67-3.41h1.81c-.02,.3-.2,1.45-.42,2.43,.84-1.63,2.29-2.66,4.05-2.66l-.42,1.95c-2.19,.16-3.85,1.82-4.39,4.4l-1.14,5.4h-1.88l1.73-8.11Z"/><path class="cls-4" d="M269.09,122.14c-.2,.96-.48,2.39-.54,2.86h-1.85c.04-.42,.16-1.13,.3-1.77-.58,.93-1.55,2-3.9,2s-3.17-1.53-3.17-2.9c0-3.29,3.08-4,5.39-4.23,1.2-.11,2.21-.11,2.8-.13l.15-.78c.22-1.09,.14-2.48-2.07-2.48-1.94,0-2.48,1.01-2.82,1.89h-1.92c.4-1.71,1.67-3.35,4.9-3.35,2.64,0,4.35,1.2,3.77,3.96l-1.05,4.93Zm-1.26-2.77c-.62,.01-1.39,.02-2.37,.12-1.87,.2-3.54,.7-3.54,2.55,0,.87,.59,1.61,1.85,1.61,2.51,0,3.5-1.96,4-4.11l.05-.18Z"/><path class="cls-4" d="M281.53,121.55c-.79,2.2-2.39,3.67-5.12,3.67s-4.18-1.84-4.18-4.51c0-3.47,1.93-7.47,5.95-7.47,3.25,0,4.16,2.35,4.03,3.91h-1.85c-.05-1.3-.62-2.36-2.3-2.36-2.67,0-3.88,3.3-3.88,5.79,0,2.18,.99,3.1,2.5,3.1,1.31,0,2.32-.8,2.96-2.14h1.89Z"/><path class="cls-4" d="M284.2,113.47h1.91l.71-3.33h1.87l-.7,3.33h2.45l-.35,1.55h-2.45l-1.46,6.97c-.22,1.05-.17,1.56,.83,1.56,.33,0,.78-.02,1.14-.1l-.34,1.48c-.54,.18-1.1,.2-1.6,.2-1.81,0-2.39-.88-1.99-2.79l1.54-7.33h-1.91l.35-1.55Z"/><path class="cls-4" d="M292.31,119.51c-.06,.46-.1,.71-.1,1.1,0,1.94,.92,3.04,2.54,3.04s2.45-.94,2.98-1.9h1.96c-.75,1.79-2.16,3.47-5.15,3.47s-4.23-1.91-4.23-4.58c0-3.24,1.77-7.4,6.03-7.4,3.09,0,4.12,2.02,4.12,4.11,0,.72-.08,1.39-.29,2.16h-7.86Zm6.25-1.43c.06-.29,.07-.58,.07-.84,0-1.57-.74-2.48-2.4-2.48-1.75,0-3.02,1.21-3.61,3.31h5.93Z"/><path class="cls-4" d="M303.51,116.88c.23-1.13,.48-2.35,.67-3.41h1.81c-.02,.3-.2,1.45-.42,2.43,.84-1.63,2.29-2.66,4.05-2.66l-.42,1.95c-2.19,.16-3.85,1.82-4.39,4.4l-1.14,5.4h-1.88l1.73-8.11Z"/><path class="cls-4" d="M308.28,125.01l.72-3.36h2l-.72,3.36h-2Z"/></g><g><path class="cls-4" d="M183.51,163.31c.17-.41,.34-.68,.52-.83s.44-.21,.78-.21h4.79c.61,.02,.92,.3,.92,.82,0,.33-.13,.61-.38,.84-.26,.23-.57,.34-.93,.34h-3.77l-1.26,3.12h1.26c.61,.02,.92,.3,.92,.82,0,.33-.13,.61-.38,.84-.26,.23-.57,.34-.93,.34h-1.69l-1.84,4.54h5.97c.63,.02,.94,.3,.94,.82,0,.33-.13,.61-.38,.84-.26,.23-.57,.34-.93,.34h-6.39l-.1,.24c-.17,.39-.32,.71-.44,.97-.12,.26-.24,.48-.36,.67s-.22,.34-.33,.49c-.11,.14-.23,.29-.37,.43-.47,.5-1,.88-1.6,1.15s-1.23,.4-1.88,.4c-.49,0-.94-.08-1.36-.23-.41-.15-.77-.37-1.07-.64-.3-.27-.53-.6-.7-.98s-.26-.79-.26-1.24c0-.32,.04-.63,.13-.92s.21-.57,.37-.82c.16-.25,.35-.47,.57-.67,.22-.19,.47-.35,.74-.46,.59-.26,1.31-.39,2.17-.39h2.95l1.84-4.54h-.27c-.62-.02-.94-.3-.94-.82,0-.33,.13-.61,.38-.84,.26-.23,.56-.34,.93-.34h.7l1.69-4.08Zm-7.35,12.6c-.22,0-.38,0-.49,.03-.11,.02-.22,.04-.33,.08-.53,.18-.8,.53-.8,1.06,0,.32,.12,.59,.35,.8,.23,.22,.53,.32,.88,.32,.51,0,1-.2,1.46-.61s.84-.96,1.13-1.68h-2.2Z"/><path class="cls-4" d="M190.63,169.92c-.23,.55-.57,.82-1.02,.82-.23,0-.43-.08-.61-.24-.18-.16-.27-.34-.27-.53,0-.2,.08-.47,.24-.78l1.11-2.25c.26-.52,.6-.78,1.01-.78,.22,0,.4,.07,.56,.2,.16,.13,.24,.29,.24,.49,0,.08-.02,.19-.05,.34-.01,.06-.02,.11-.03,.17,0,.06,0,.11,0,.17,0,.34,.13,.69,.4,1.06l.48,.67c.48,.68,.72,1.31,.72,1.89,0,.42-.11,.82-.32,1.2-.21,.38-.5,.69-.87,.91-.11,.07-.23,.12-.36,.16-.13,.04-.32,.09-.57,.14-.12,.03-.23,.06-.32,.07-.09,.01-.15,.02-.2,.02h-2.06c-.57-.02-.85-.27-.85-.75,0-.3,.12-.55,.36-.76,.24-.21,.52-.32,.85-.32h1.16c.77,0,1.16-.28,1.16-.85,0-.11-.01-.22-.04-.32-.03-.1-.08-.22-.16-.38l-.38-.72-.17,.37Z"/><path class="cls-4" d="M198.43,167.28h.2c.57,0,.85,.24,.85,.73,0,.3-.12,.55-.36,.77-.24,.22-.52,.32-.85,.32h-.8l-1.11,2.71h1.13c.57,.02,.85,.27,.85,.75,0,.3-.12,.55-.36,.76-.24,.21-.52,.32-.85,.32h-1.69c-.42,0-.75-.1-1-.3-.24-.2-.37-.46-.37-.79,0-.22,.05-.44,.15-.68l.15-.36,.97-2.4c-.7,0-1.06-.25-1.06-.75,0-.3,.12-.55,.36-.76,.24-.21,.52-.32,.85-.32h.58l.44-1.09,.1-.22c.26-.63,.67-.94,1.21-.94,.24,0,.44,.07,.6,.22,.16,.15,.24,.34,.24,.56,0,.1-.02,.22-.05,.37-.03,.14-.09,.29-.15,.43l-.31,.67h.26Z"/><path class="cls-4" d="M200,173.53c-.23-.22-.34-.5-.34-.83s.11-.59,.33-.82c.22-.23,.49-.34,.81-.34s.61,.11,.84,.34c.23,.23,.34,.51,.34,.84s-.11,.59-.34,.81c-.23,.22-.5,.33-.82,.33s-.59-.11-.82-.33Z"/><path class="cls-4" d="M209.63,171.81h.2c.58,.02,.87,.27,.87,.74,0,.3-.12,.56-.36,.77s-.53,.31-.87,.31h-4.33c-.34,0-.61-.09-.81-.26-.2-.17-.3-.4-.3-.7,0-.18,.03-.33,.09-.45,.06-.12,.16-.26,.32-.44l4.67-4.79c.27-.27,.41-.56,.41-.85,0-.26-.11-.49-.32-.69s-.46-.3-.74-.3c-.31,0-.57,.1-.78,.3-.21,.2-.32,.45-.32,.74,0,.19,.05,.37,.14,.53l.17,.38c.07,.13,.1,.27,.1,.44,0,.27-.09,.5-.26,.67s-.41,.26-.69,.26c-.2,0-.4-.05-.59-.16-.19-.11-.35-.26-.49-.44-.14-.19-.24-.41-.32-.67-.08-.26-.12-.53-.12-.83,0-.44,.08-.85,.25-1.23,.16-.38,.39-.7,.69-.98s.64-.5,1.04-.66c.4-.16,.83-.24,1.3-.24s.85,.07,1.23,.21,.7,.34,.96,.59c.27,.25,.47,.55,.62,.9s.22,.73,.22,1.15c0,.36-.08,.73-.24,1.09-.16,.36-.38,.68-.65,.96l-3.56,3.62h2.46Z"/><path class="cls-4" d="M213.49,173.61c-.35-.14-.65-.37-.91-.7-.44-.55-.67-1.23-.67-2.06s.14-1.69,.43-2.59,.71-1.74,1.25-2.54c1.09-1.61,2.36-2.42,3.82-2.42,.85,0,1.52,.28,2.01,.83,.49,.55,.73,1.3,.73,2.24,0,.61-.07,1.23-.2,1.86-.13,.62-.31,1.22-.55,1.8-.23,.57-.51,1.11-.84,1.59s-.67,.89-1.05,1.21c-.77,.66-1.68,.99-2.71,.99-.55,0-.99-.07-1.34-.2Zm4.45-8.19c-.17-.23-.4-.35-.71-.35-.38,0-.76,.18-1.15,.55-.39,.36-.76,.89-1.13,1.59-.31,.59-.56,1.2-.74,1.83s-.28,1.18-.28,1.65c0,.38,.1,.68,.3,.92,.2,.24,.45,.36,.76,.36,.79,0,1.51-.62,2.16-1.86,.16-.3,.3-.61,.43-.94,.13-.33,.23-.66,.33-.98,.09-.32,.16-.64,.21-.94,.05-.3,.08-.58,.08-.84,0-.42-.08-.75-.25-.98Z"/><path class="cls-4" d="M225.83,171.81h.2c.58,.02,.87,.27,.87,.74,0,.3-.12,.56-.36,.77s-.53,.31-.87,.31h-4.33c-.34,0-.61-.09-.81-.26-.2-.17-.3-.4-.3-.7,0-.18,.03-.33,.09-.45,.06-.12,.16-.26,.32-.44l4.67-4.79c.27-.27,.41-.56,.41-.85,0-.26-.11-.49-.32-.69s-.46-.3-.74-.3c-.31,0-.57,.1-.78,.3-.21,.2-.32,.45-.32,.74,0,.19,.05,.37,.14,.53l.17,.38c.07,.13,.1,.27,.1,.44,0,.27-.09,.5-.26,.67s-.41,.26-.69,.26c-.2,0-.4-.05-.59-.16-.19-.11-.35-.26-.49-.44-.14-.19-.24-.41-.32-.67-.08-.26-.12-.53-.12-.83,0-.44,.08-.85,.25-1.23,.16-.38,.39-.7,.69-.98s.64-.5,1.04-.66c.4-.16,.83-.24,1.3-.24s.85,.07,1.23,.21,.7,.34,.96,.59c.27,.25,.47,.55,.62,.9s.22,.73,.22,1.15c0,.36-.08,.73-.24,1.09-.16,.36-.38,.68-.65,.96l-3.56,3.62h2.46Z"/><path class="cls-4" d="M233.42,171.81h.2c.58,.02,.87,.27,.87,.74,0,.3-.12,.56-.36,.77s-.53,.31-.87,.31h-4.33c-.34,0-.61-.09-.81-.26-.2-.17-.3-.4-.3-.7,0-.18,.03-.33,.09-.45,.06-.12,.16-.26,.32-.44l4.67-4.79c.27-.27,.41-.56,.41-.85,0-.26-.11-.49-.32-.69s-.46-.3-.74-.3c-.31,0-.57,.1-.78,.3-.21,.2-.32,.45-.32,.74,0,.19,.05,.37,.14,.53l.17,.38c.07,.13,.1,.27,.1,.44,0,.27-.09,.5-.26,.67s-.41,.26-.69,.26c-.2,0-.4-.05-.59-.16-.19-.11-.35-.26-.49-.44-.14-.19-.24-.41-.32-.67-.08-.26-.12-.53-.12-.83,0-.44,.08-.85,.25-1.23,.16-.38,.39-.7,.69-.98s.64-.5,1.04-.66c.4-.16,.83-.24,1.3-.24s.85,.07,1.23,.21,.7,.34,.96,.59c.27,.25,.47,.55,.62,.9s.22,.73,.22,1.15c0,.36-.08,.73-.24,1.09-.16,.36-.38,.68-.65,.96l-3.56,3.62h2.46Z"/></g></svg>